<svg xmlns="http://www.w3.org/2000/svg" width="478" height="480" viewBox="0 0 478 480" fill="none">
  <path d="M254.649 220.767C267.188 214.764 275.785 205.16 280.439 191.955C285.093 178.75 284.418 165.879 278.415 153.34C272.411 140.801 262.807 132.204 249.602 127.55C236.398 122.896 223.526 123.571 210.987 129.574C198.448 135.578 189.851 145.182 185.197 158.386C180.543 171.591 181.218 184.463 187.222 197.002C193.225 209.541 202.829 218.137 216.034 222.791C229.238 227.445 242.11 226.771 254.649 220.767ZM249.813 503.327L227.982 457.731L319.175 414.069L285.337 343.394C264.717 348.129 244.319 348.204 224.141 343.619C203.963 339.034 186.271 329.639 171.063 315.435C140.927 325.66 111.126 324.632 81.6589 312.351C52.1915 300.069 30.5447 279.49 16.7183 250.612L5.8028 227.814C-0.200751 215.275 -0.875496 202.403 3.77856 189.199C8.43262 175.994 17.0292 166.39 29.5682 160.386L75.1647 138.555L53.3336 92.9589L281.316 -16.1965L303.147 29.4L348.744 7.56889C361.283 1.56534 374.154 0.890593 387.359 5.54464C400.564 10.1987 410.168 18.7953 416.171 31.3343L427.087 54.1325C440.913 83.0103 443.371 112.777 434.462 143.433C425.552 174.088 407.667 197.948 380.806 215.012C382.335 235.766 378.56 255.439 369.48 274.032C360.4 292.625 347.551 308.469 330.934 321.563L364.772 392.238L455.965 348.575L477.796 394.172L249.813 503.327ZM138.475 270.785L96.9958 184.152L51.3993 205.983L62.3148 228.781C69.228 243.22 79.6386 254.233 93.5467 261.82C107.455 269.406 122.431 272.395 138.475 270.785ZM287.396 289.162C306.394 280.066 319.359 265.684 326.291 246.018C333.222 226.351 332.14 207.019 323.044 188.02L257.551 51.2311L120.761 116.724L186.254 253.514C195.351 272.512 209.732 285.477 229.398 292.409C249.065 299.34 268.397 298.258 287.396 289.162ZM366.457 161.63C377.771 150.141 384.833 136.601 387.644 121.009C390.455 105.418 388.403 90.4025 381.49 75.9636L370.575 53.1654L324.978 74.9965L366.457 161.63Z" fill="url(#paint0_linear_60892_1304)"/>
  <defs>
    <linearGradient id="paint0_linear_60892_1304" x1="-275.443" y1="477.448" x2="755.342" y2="-60.0843" gradientUnits="userSpaceOnUse">
      <stop stop-color="#759877" stop-opacity="0"/>
      <stop offset="1" stop-color="#C4FEC7"/>
    </linearGradient>
  </defs>
</svg>