<svg width="60" height="60" viewBox="0 0 60 60" fill="none" xmlns="http://www.w3.org/2000/svg">
<mask id="mask0_60486_2749" style="mask-type:alpha" maskUnits="userSpaceOnUse" x="0" y="0" width="60" height="60">
<rect width="60" height="60" fill="#D9D9D9"/>
</mask>
<g mask="url(#mask0_60486_2749)">
<path d="M20 44.875C20.4167 44.9167 20.8229 44.9479 21.2188 44.9688C21.6146 44.9896 22.0417 45 22.5 45C22.9583 45 23.3854 44.9896 23.7812 44.9688C24.1771 44.9479 24.5833 44.9167 25 44.875V50H50V25H44.875C44.9167 24.5833 44.9479 24.1771 44.9688 23.7812C44.9896 23.3854 45 22.9583 45 22.5C45 22.0417 44.9896 21.6146 44.9688 21.2188C44.9479 20.8229 44.9167 20.4167 44.875 20H50C51.375 20 52.5521 20.4896 53.5312 21.4688C54.5104 22.4479 55 23.625 55 25V50C55 51.375 54.5104 52.5521 53.5312 53.5312C52.5521 54.5104 51.375 55 50 55H25C23.625 55 22.4479 54.5104 21.4688 53.5312C20.4896 52.5521 20 51.375 20 50V44.875ZM22.5 40C17.625 40 13.4896 38.3021 10.0938 34.9063C6.69792 31.5104 5 27.375 5 22.5C5 17.625 6.69792 13.4896 10.0938 10.0938C13.4896 6.69792 17.625 5 22.5 5C27.375 5 31.5104 6.69792 34.9063 10.0938C38.3021 13.4896 40 17.625 40 22.5C40 27.375 38.3021 31.5104 34.9063 34.9063C31.5104 38.3021 27.375 40 22.5 40ZM22.5 35C25.9583 35 28.9062 33.7813 31.3438 31.3438C33.7813 28.9062 35 25.9583 35 22.5C35 19.0417 33.7813 16.0938 31.3438 13.6562C28.9062 11.2188 25.9583 10 22.5 10C19.0417 10 16.0938 11.2188 13.6562 13.6562C11.2188 16.0938 10 19.0417 10 22.5C10 25.9583 11.2188 28.9062 13.6562 31.3438C16.0938 33.7813 19.0417 35 22.5 35Z" fill="white"/>
</g>
</svg>
