<svg xmlns="http://www.w3.org/2000/svg" width="41" height="40" viewBox="0 0 41 40" fill="none">
  <mask id="mask0_59911_64783" style="mask-type:alpha" maskUnits="userSpaceOnUse" x="0" y="0" width="41" height="40">
    <rect x="0.5" width="40" height="40" fill="#D9D9D9"/>
  </mask>
  <g mask="url(#mask0_59911_64783)">
    <path d="M20.4998 10C20.2776 10 20.0831 9.91671 19.9165 9.75004C19.7498 9.58337 19.6665 9.38893 19.6665 9.16671C19.6665 8.94449 19.7498 8.75004 19.9165 8.58337C20.0831 8.41671 20.2776 8.33337 20.4998 8.33337C20.722 8.33337 20.9165 8.41671 21.0831 8.58337C21.2498 8.75004 21.3331 8.94449 21.3331 9.16671C21.3331 9.38893 21.2498 9.58337 21.0831 9.75004C20.9165 9.91671 20.722 10 20.4998 10ZM23.8331 10C23.6109 10 23.4165 9.91671 23.2498 9.75004C23.0831 9.58337 22.9998 9.38893 22.9998 9.16671C22.9998 8.94449 23.0831 8.75004 23.2498 8.58337C23.4165 8.41671 23.6109 8.33337 23.8331 8.33337C24.0554 8.33337 24.2498 8.41671 24.4165 8.58337C24.5831 8.75004 24.6665 8.94449 24.6665 9.16671C24.6665 9.38893 24.5831 9.58337 24.4165 9.75004C24.2498 9.91671 24.0554 10 23.8331 10ZM17.1665 10C16.9442 10 16.7498 9.91671 16.5831 9.75004C16.4165 9.58337 16.3331 9.38893 16.3331 9.16671C16.3331 8.94449 16.4165 8.75004 16.5831 8.58337C16.7498 8.41671 16.9442 8.33337 17.1665 8.33337C17.3887 8.33337 17.5831 8.41671 17.7498 8.58337C17.9165 8.75004 17.9998 8.94449 17.9998 9.16671C17.9998 9.38893 17.9165 9.58337 17.7498 9.75004C17.5831 9.91671 17.3887 10 17.1665 10ZM28.8331 11.6667C28.6109 11.6667 28.4165 11.5834 28.2498 11.4167C28.0831 11.25 27.9998 11.0556 27.9998 10.8334C27.9998 10.6112 28.0831 10.4167 28.2498 10.25C28.4165 10.0834 28.6109 10 28.8331 10C29.0554 10 29.2498 10.0834 29.4165 10.25C29.5831 10.4167 29.6665 10.6112 29.6665 10.8334C29.6665 11.0556 29.5831 11.25 29.4165 11.4167C29.2498 11.5834 29.0554 11.6667 28.8331 11.6667ZM15.4998 11.6667C15.2776 11.6667 15.0831 11.5834 14.9165 11.4167C14.7498 11.25 14.6665 11.0556 14.6665 10.8334C14.6665 10.6112 14.7498 10.4167 14.9165 10.25C15.0831 10.0834 15.2776 10 15.4998 10C15.722 10 15.9165 10.0834 16.0831 10.25C16.2498 10.4167 16.3331 10.6112 16.3331 10.8334C16.3331 11.0556 16.2498 11.25 16.0831 11.4167C15.9165 11.5834 15.722 11.6667 15.4998 11.6667ZM12.1665 11.6667C11.9442 11.6667 11.7498 11.5834 11.5831 11.4167C11.4165 11.25 11.3331 11.0556 11.3331 10.8334C11.3331 10.6112 11.4165 10.4167 11.5831 10.25C11.7498 10.0834 11.9442 10 12.1665 10C12.3887 10 12.5831 10.0834 12.7498 10.25C12.9165 10.4167 12.9998 10.6112 12.9998 10.8334C12.9998 11.0556 12.9165 11.25 12.7498 11.4167C12.5831 11.5834 12.3887 11.6667 12.1665 11.6667ZM18.8331 11.6667C18.6109 11.6667 18.4165 11.5834 18.2498 11.4167C18.0831 11.25 17.9998 11.0556 17.9998 10.8334C17.9998 10.6112 18.0831 10.4167 18.2498 10.25C18.4165 10.0834 18.6109 10 18.8331 10C19.0554 10 19.2498 10.0834 19.4165 10.25C19.5831 10.4167 19.6665 10.6112 19.6665 10.8334C19.6665 11.0556 19.5831 11.25 19.4165 11.4167C19.2498 11.5834 19.0554 11.6667 18.8331 11.6667ZM22.1665 11.6667C21.9442 11.6667 21.7498 11.5834 21.5831 11.4167C21.4165 11.25 21.3331 11.0556 21.3331 10.8334C21.3331 10.6112 21.4165 10.4167 21.5831 10.25C21.7498 10.0834 21.9442 10 22.1665 10C22.3887 10 22.5831 10.0834 22.7498 10.25C22.9165 10.4167 22.9998 10.6112 22.9998 10.8334C22.9998 11.0556 22.9165 11.25 22.7498 11.4167C22.5831 11.5834 22.3887 11.6667 22.1665 11.6667ZM25.4998 11.6667C25.2776 11.6667 25.0831 11.5834 24.9165 11.4167C24.7498 11.25 24.6665 11.0556 24.6665 10.8334C24.6665 10.6112 24.7498 10.4167 24.9165 10.25C25.0831 10.0834 25.2776 10 25.4998 10C25.722 10 25.9165 10.0834 26.0831 10.25C26.2498 10.4167 26.3331 10.6112 26.3331 10.8334C26.3331 11.0556 26.2498 11.25 26.0831 11.4167C25.9165 11.5834 25.722 11.6667 25.4998 11.6667ZM20.4998 13.3334C20.2776 13.3334 20.0831 13.25 19.9165 13.0834C19.7498 12.9167 19.6665 12.7223 19.6665 12.5C19.6665 12.2778 19.7498 12.0834 19.9165 11.9167C20.0831 11.75 20.2776 11.6667 20.4998 11.6667C20.722 11.6667 20.9165 11.75 21.0831 11.9167C21.2498 12.0834 21.3331 12.2778 21.3331 12.5C21.3331 12.7223 21.2498 12.9167 21.0831 13.0834C20.9165 13.25 20.722 13.3334 20.4998 13.3334ZM23.8331 13.3334C23.6109 13.3334 23.4165 13.25 23.2498 13.0834C23.0831 12.9167 22.9998 12.7223 22.9998 12.5C22.9998 12.2778 23.0831 12.0834 23.2498 11.9167C23.4165 11.75 23.6109 11.6667 23.8331 11.6667C24.0554 11.6667 24.2498 11.75 24.4165 11.9167C24.5831 12.0834 24.6665 12.2778 24.6665 12.5C24.6665 12.7223 24.5831 12.9167 24.4165 13.0834C24.2498 13.25 24.0554 13.3334 23.8331 13.3334ZM27.1665 13.3334C26.9442 13.3334 26.7498 13.25 26.5831 13.0834C26.4165 12.9167 26.3331 12.7223 26.3331 12.5C26.3331 12.2778 26.4165 12.0834 26.5831 11.9167C26.7498 11.75 26.9442 11.6667 27.1665 11.6667C27.3887 11.6667 27.5831 11.75 27.7498 11.9167C27.9165 12.0834 27.9998 12.2778 27.9998 12.5C27.9998 12.7223 27.9165 12.9167 27.7498 13.0834C27.5831 13.25 27.3887 13.3334 27.1665 13.3334ZM17.1665 13.3334C16.9442 13.3334 16.7498 13.25 16.5831 13.0834C16.4165 12.9167 16.3331 12.7223 16.3331 12.5C16.3331 12.2778 16.4165 12.0834 16.5831 11.9167C16.7498 11.75 16.9442 11.6667 17.1665 11.6667C17.3887 11.6667 17.5831 11.75 17.7498 11.9167C17.9165 12.0834 17.9998 12.2778 17.9998 12.5C17.9998 12.7223 17.9165 12.9167 17.7498 13.0834C17.5831 13.25 17.3887 13.3334 17.1665 13.3334ZM13.8331 13.3334C13.6109 13.3334 13.4165 13.25 13.2498 13.0834C13.0831 12.9167 12.9998 12.7223 12.9998 12.5C12.9998 12.2778 13.0831 12.0834 13.2498 11.9167C13.4165 11.75 13.6109 11.6667 13.8331 11.6667C14.0554 11.6667 14.2498 11.75 14.4165 11.9167C14.5831 12.0834 14.6665 12.2778 14.6665 12.5C14.6665 12.7223 14.5831 12.9167 14.4165 13.0834C14.2498 13.25 14.0554 13.3334 13.8331 13.3334ZM15.4998 15C15.2776 15 15.0831 14.9167 14.9165 14.75C14.7498 14.5834 14.6665 14.3889 14.6665 14.1667C14.6665 13.9445 14.7498 13.75 14.9165 13.5834C15.0831 13.4167 15.2776 13.3334 15.4998 13.3334C15.722 13.3334 15.9165 13.4167 16.0831 13.5834C16.2498 13.75 16.3331 13.9445 16.3331 14.1667C16.3331 14.3889 16.2498 14.5834 16.0831 14.75C15.9165 14.9167 15.722 15 15.4998 15ZM12.1665 15C11.9442 15 11.7498 14.9167 11.5831 14.75C11.4165 14.5834 11.3331 14.3889 11.3331 14.1667C11.3331 13.9445 11.4165 13.75 11.5831 13.5834C11.7498 13.4167 11.9442 13.3334 12.1665 13.3334C12.3887 13.3334 12.5831 13.4167 12.7498 13.5834C12.9165 13.75 12.9998 13.9445 12.9998 14.1667C12.9998 14.3889 12.9165 14.5834 12.7498 14.75C12.5831 14.9167 12.3887 15 12.1665 15ZM18.8331 15C18.6109 15 18.4165 14.9167 18.2498 14.75C18.0831 14.5834 17.9998 14.3889 17.9998 14.1667C17.9998 13.9445 18.0831 13.75 18.2498 13.5834C18.4165 13.4167 18.6109 13.3334 18.8331 13.3334C19.0554 13.3334 19.2498 13.4167 19.4165 13.5834C19.5831 13.75 19.6665 13.9445 19.6665 14.1667C19.6665 14.3889 19.5831 14.5834 19.4165 14.75C19.2498 14.9167 19.0554 15 18.8331 15ZM22.1665 15C21.9442 15 21.7498 14.9167 21.5831 14.75C21.4165 14.5834 21.3331 14.3889 21.3331 14.1667C21.3331 13.9445 21.4165 13.75 21.5831 13.5834C21.7498 13.4167 21.9442 13.3334 22.1665 13.3334C22.3887 13.3334 22.5831 13.4167 22.7498 13.5834C22.9165 13.75 22.9998 13.9445 22.9998 14.1667C22.9998 14.3889 22.9165 14.5834 22.7498 14.75C22.5831 14.9167 22.3887 15 22.1665 15ZM25.4998 15C25.2776 15 25.0831 14.9167 24.9165 14.75C24.7498 14.5834 24.6665 14.3889 24.6665 14.1667C24.6665 13.9445 24.7498 13.75 24.9165 13.5834C25.0831 13.4167 25.2776 13.3334 25.4998 13.3334C25.722 13.3334 25.9165 13.4167 26.0831 13.5834C26.2498 13.75 26.3331 13.9445 26.3331 14.1667C26.3331 14.3889 26.2498 14.5834 26.0831 14.75C25.9165 14.9167 25.722 15 25.4998 15ZM28.8331 15C28.6109 15 28.4165 14.9167 28.2498 14.75C28.0831 14.5834 27.9998 14.3889 27.9998 14.1667C27.9998 13.9445 28.0831 13.75 28.2498 13.5834C28.4165 13.4167 28.6109 13.3334 28.8331 13.3334C29.0554 13.3334 29.2498 13.4167 29.4165 13.5834C29.5831 13.75 29.6665 13.9445 29.6665 14.1667C29.6665 14.3889 29.5831 14.5834 29.4165 14.75C29.2498 14.9167 29.0554 15 28.8331 15ZM8.83313 15C8.61091 15 8.41646 14.9167 8.2498 14.75C8.08313 14.5834 7.9998 14.3889 7.9998 14.1667C7.9998 13.9445 8.08313 13.75 8.2498 13.5834C8.41646 13.4167 8.61091 13.3334 8.83313 13.3334C9.05535 13.3334 9.2498 13.4167 9.41646 13.5834C9.58313 13.75 9.66646 13.9445 9.66646 14.1667C9.66646 14.3889 9.58313 14.5834 9.41646 14.75C9.2498 14.9167 9.05535 15 8.83313 15ZM10.4998 13.3334C10.2776 13.3334 10.0831 13.25 9.91646 13.0834C9.7498 12.9167 9.66646 12.7223 9.66646 12.5C9.66646 12.2778 9.7498 12.0834 9.91646 11.9167C10.0831 11.75 10.2776 11.6667 10.4998 11.6667C10.722 11.6667 10.9165 11.75 11.0831 11.9167C11.2498 12.0834 11.3331 12.2778 11.3331 12.5C11.3331 12.7223 11.2498 12.9167 11.0831 13.0834C10.9165 13.25 10.722 13.3334 10.4998 13.3334ZM13.8331 10C13.6109 10 13.4165 9.91671 13.2498 9.75004C13.0831 9.58337 12.9998 9.38893 12.9998 9.16671C12.9998 8.94449 13.0831 8.75004 13.2498 8.58337C13.4165 8.41671 13.6109 8.33337 13.8331 8.33337C14.0554 8.33337 14.2498 8.41671 14.4165 8.58337C14.5831 8.75004 14.6665 8.94449 14.6665 9.16671C14.6665 9.38893 14.5831 9.58337 14.4165 9.75004C14.2498 9.91671 14.0554 10 13.8331 10ZM15.4998 8.33337C15.2776 8.33337 15.0831 8.25004 14.9165 8.08337C14.7498 7.91671 14.6665 7.72226 14.6665 7.50004C14.6665 7.27782 14.7498 7.08337 14.9165 6.91671C15.0831 6.75004 15.2776 6.66671 15.4998 6.66671C15.722 6.66671 15.9165 6.75004 16.0831 6.91671C16.2498 7.08337 16.3331 7.27782 16.3331 7.50004C16.3331 7.72226 16.2498 7.91671 16.0831 8.08337C15.9165 8.25004 15.722 8.33337 15.4998 8.33337ZM18.8331 8.33337C18.6109 8.33337 18.4165 8.25004 18.2498 8.08337C18.0831 7.91671 17.9998 7.72226 17.9998 7.50004C17.9998 7.27782 18.0831 7.08337 18.2498 6.91671C18.4165 6.75004 18.6109 6.66671 18.8331 6.66671C19.0554 6.66671 19.2498 6.75004 19.4165 6.91671C19.5831 7.08337 19.6665 7.27782 19.6665 7.50004C19.6665 7.72226 19.5831 7.91671 19.4165 8.08337C19.2498 8.25004 19.0554 8.33337 18.8331 8.33337ZM22.1665 8.33337C21.9442 8.33337 21.7498 8.25004 21.5831 8.08337C21.4165 7.91671 21.3331 7.72226 21.3331 7.50004C21.3331 7.27782 21.4165 7.08337 21.5831 6.91671C21.7498 6.75004 21.9442 6.66671 22.1665 6.66671C22.3887 6.66671 22.5831 6.75004 22.7498 6.91671C22.9165 7.08337 22.9998 7.27782 22.9998 7.50004C22.9998 7.72226 22.9165 7.91671 22.7498 8.08337C22.5831 8.25004 22.3887 8.33337 22.1665 8.33337ZM25.4998 8.33337C25.2776 8.33337 25.0831 8.25004 24.9165 8.08337C24.7498 7.91671 24.6665 7.72226 24.6665 7.50004C24.6665 7.27782 24.7498 7.08337 24.9165 6.91671C25.0831 6.75004 25.2776 6.66671 25.4998 6.66671C25.722 6.66671 25.9165 6.75004 26.0831 6.91671C26.2498 7.08337 26.3331 7.27782 26.3331 7.50004C26.3331 7.72226 26.2498 7.91671 26.0831 8.08337C25.9165 8.25004 25.722 8.33337 25.4998 8.33337ZM27.1665 10C26.9442 10 26.7498 9.91671 26.5831 9.75004C26.4165 9.58337 26.3331 9.38893 26.3331 9.16671C26.3331 8.94449 26.4165 8.75004 26.5831 8.58337C26.7498 8.41671 26.9442 8.33337 27.1665 8.33337C27.3887 8.33337 27.5831 8.41671 27.7498 8.58337C27.9165 8.75004 27.9998 8.94449 27.9998 9.16671C27.9998 9.38893 27.9165 9.58337 27.7498 9.75004C27.5831 9.91671 27.3887 10 27.1665 10ZM30.4998 13.3334C30.2776 13.3334 30.0831 13.25 29.9165 13.0834C29.7498 12.9167 29.6665 12.7223 29.6665 12.5C29.6665 12.2778 29.7498 12.0834 29.9165 11.9167C30.0831 11.75 30.2776 11.6667 30.4998 11.6667C30.722 11.6667 30.9165 11.75 31.0831 11.9167C31.2498 12.0834 31.3331 12.2778 31.3331 12.5C31.3331 12.7223 31.2498 12.9167 31.0831 13.0834C30.9165 13.25 30.722 13.3334 30.4998 13.3334ZM32.1665 15C31.9442 15 31.7498 14.9167 31.5831 14.75C31.4165 14.5834 31.3331 14.3889 31.3331 14.1667C31.3331 13.9445 31.4165 13.75 31.5831 13.5834C31.7498 13.4167 31.9442 13.3334 32.1665 13.3334C32.3887 13.3334 32.5831 13.4167 32.7498 13.5834C32.9165 13.75 32.9998 13.9445 32.9998 14.1667C32.9998 14.3889 32.9165 14.5834 32.7498 14.75C32.5831 14.9167 32.3887 15 32.1665 15ZM15.4998 23.75C14.9165 23.75 14.4234 23.5487 14.0206 23.1459C13.6179 22.7431 13.4165 22.25 13.4165 21.6667C13.4165 21.0834 13.6179 20.5903 14.0206 20.1875C14.4234 19.7848 14.9165 19.5834 15.4998 19.5834C16.0831 19.5834 16.5762 19.7848 16.979 20.1875C17.3817 20.5903 17.5831 21.0834 17.5831 21.6667C17.5831 22.25 17.3817 22.7431 16.979 23.1459C16.5762 23.5487 16.0831 23.75 15.4998 23.75ZM25.4998 23.75C24.9165 23.75 24.4234 23.5487 24.0206 23.1459C23.6179 22.7431 23.4165 22.25 23.4165 21.6667C23.4165 21.0834 23.6179 20.5903 24.0206 20.1875C24.4234 19.7848 24.9165 19.5834 25.4998 19.5834C26.0831 19.5834 26.5762 19.7848 26.979 20.1875C27.3817 20.5903 27.5831 21.0834 27.5831 21.6667C27.5831 22.25 27.3817 22.7431 26.979 23.1459C26.5762 23.5487 26.0831 23.75 25.4998 23.75ZM20.4998 36.6667C18.222 36.6667 16.0692 36.2292 14.0415 35.3542C12.0137 34.4792 10.2429 33.2848 8.72896 31.7709C7.21507 30.257 6.02063 28.4862 5.14563 26.4584C4.27063 24.4306 3.83313 22.2778 3.83313 20C3.83313 17.6945 4.27063 15.5278 5.14563 13.5C6.02063 11.4723 7.21507 9.70837 8.72896 8.20837C10.2429 6.70837 12.0137 5.52087 14.0415 4.64587C16.0692 3.77087 18.222 3.33337 20.4998 3.33337C22.8054 3.33337 24.972 3.77087 26.9998 4.64587C29.0276 5.52087 30.7915 6.70837 32.2915 8.20837C33.7915 9.70837 34.979 11.4723 35.854 13.5C36.729 15.5278 37.1665 17.6945 37.1665 20C37.1665 22.2778 36.729 24.4306 35.854 26.4584C34.979 28.4862 33.7915 30.257 32.2915 31.7709C30.7915 33.2848 29.0276 34.4792 26.9998 35.3542C24.972 36.2292 22.8054 36.6667 20.4998 36.6667ZM20.4998 33.3334C24.222 33.3334 27.3748 32.0348 29.9581 29.4375C32.5415 26.8403 33.8331 23.6945 33.8331 20C33.8331 16.2778 32.5415 13.125 29.9581 10.5417C27.3748 7.95837 24.222 6.66671 20.4998 6.66671C16.8054 6.66671 13.6595 7.95837 11.0623 10.5417C8.46507 13.125 7.16646 16.2778 7.16646 20C7.16646 23.6945 8.46507 26.8403 11.0623 29.4375C13.6595 32.0348 16.8054 33.3334 20.4998 33.3334Z" fill="white"/>
  </g>
</svg>