<svg width="184" height="183" viewBox="0 0 184 183" fill="none" xmlns="http://www.w3.org/2000/svg">
<mask id="mask0_59911_64849" style="mask-type:alpha" maskUnits="userSpaceOnUse" x="0" y="0" width="184" height="183">
<rect x="0.5" width="183" height="183" fill="#D9D9D9"/>
</mask>
<g mask="url(#mask0_59911_64849)">
<path d="M61.5 136.869C62.7708 136.996 64.0099 137.091 65.2172 137.155C66.4245 137.218 67.7271 137.25 69.125 137.25C70.5229 137.25 71.8255 137.218 73.0328 137.155C74.2401 137.091 75.4792 136.996 76.75 136.869V152.5H153V76.25H137.369C137.496 74.9792 137.591 73.7401 137.655 72.5328C137.718 71.3255 137.75 70.0229 137.75 68.625C137.75 67.2271 137.718 65.9245 137.655 64.7172C137.591 63.5099 137.496 62.2708 137.369 61H153C157.194 61 160.784 62.4932 163.77 65.4797C166.757 68.4661 168.25 72.0563 168.25 76.25V152.5C168.25 156.694 166.757 160.284 163.77 163.27C160.784 166.257 157.194 167.75 153 167.75H76.75C72.5563 167.75 68.9661 166.257 65.9797 163.27C62.9932 160.284 61.5 156.694 61.5 152.5V136.869ZM69.125 122C54.2562 122 41.6432 116.821 31.2859 106.464C20.9286 96.1068 15.75 83.4938 15.75 68.625C15.75 53.7562 20.9286 41.1432 31.2859 30.7859C41.6432 20.4286 54.2562 15.25 69.125 15.25C83.9938 15.25 96.6068 20.4286 106.964 30.7859C117.321 41.1432 122.5 53.7562 122.5 68.625C122.5 83.4938 117.321 96.1068 106.964 106.464C96.6068 116.821 83.9938 122 69.125 122ZM69.125 106.75C79.6729 106.75 88.6641 103.033 96.0984 95.5984C103.533 88.1641 107.25 79.1729 107.25 68.625C107.25 58.0771 103.533 49.0859 96.0984 41.6516C88.6641 34.2172 79.6729 30.5 69.125 30.5C58.5771 30.5 49.5859 34.2172 42.1516 41.6516C34.7172 49.0859 31 58.0771 31 68.625C31 79.1729 34.7172 88.1641 42.1516 95.5984C49.5859 103.033 58.5771 106.75 69.125 106.75Z" fill="white"/>
</g>
</svg>