<svg width="40" height="40" viewBox="0 0 40 40" fill="none" xmlns="http://www.w3.org/2000/svg">
<path d="M20.3555 6.7871C22.4866 6.79599 24.5753 7.39504 26.3985 8.52026C28.07 9.55187 29.4609 10.9902 30.4484 12.7029C30.5926 12.9529 30.4794 13.2711 30.2167 13.3811L28.7185 14.0081C28.3216 14.1743 28.3207 14.7485 28.7171 14.916L36.239 18.0928C36.4838 18.1962 36.7642 18.0774 36.8657 17.8274L39.962 10.2036C40.1256 9.80056 39.7319 9.39593 39.3368 9.56114L37.3224 10.4034C37.0879 10.5015 36.8197 10.3959 36.7036 10.1657C34.8773 6.54437 31.9411 3.62433 28.3357 1.8543C24.5946 0.0175968 20.3537 -0.472519 16.3044 0.463854C12.2552 1.40023 8.63634 3.70786 6.03799 7.01053C3.54062 10.1849 2.12751 14.0984 2.00489 18.1573C1.99668 18.4291 2.21263 18.6503 2.47863 18.6503H8.18259C8.44704 18.6503 8.66066 18.4315 8.67252 18.1614C8.80316 15.186 10.0237 12.3613 12.1026 10.2525C14.295 8.02839 17.2631 6.78212 20.3555 6.7871Z" fill="#003412"/>
<path d="M19.6445 33.2129C17.5134 33.204 15.4247 32.605 13.6015 31.4797C11.93 30.4481 10.5391 29.0098 9.55157 27.2971C9.40741 27.0471 9.52062 26.7289 9.78334 26.6189L11.2815 25.9919C11.6784 25.8257 11.6793 25.2515 11.2829 25.084L3.76098 21.9072C3.51622 21.8038 3.2358 21.9226 3.13426 22.1726L0.0380374 29.7964C-0.125646 30.1994 0.268074 30.6041 0.663183 30.4389L2.67762 29.5966C2.91215 29.4985 3.18025 29.6041 3.29637 29.8343C5.12272 33.4556 8.05895 36.3757 11.6643 38.1457C15.4054 39.9824 19.6463 40.4725 23.6956 39.5361C27.7449 38.5998 31.3637 36.2921 33.962 32.9895C36.4594 29.8151 37.8725 25.9016 37.9951 21.8427C38.0033 21.5709 37.7874 21.3497 37.5214 21.3497H31.8174C31.553 21.3497 31.3393 21.5685 31.3275 21.8386C31.1968 24.814 29.9763 27.6387 27.8974 29.7475C25.705 31.9716 22.7369 33.2179 19.6445 33.2129Z" fill="#003412"/>
<path d="M19.4234 12.7249C19.5671 12.2728 20.1929 12.2728 20.3366 12.7249L21.901 17.6471C21.9653 17.8493 22.1496 17.9862 22.3576 17.9862H27.4202C27.8853 17.9862 28.0787 18.5946 27.7024 18.8741L23.6067 21.9161C23.4384 22.0411 23.368 22.2626 23.4323 22.4649L24.9967 27.387C25.1404 27.8392 24.6342 28.2152 24.2579 27.9357L20.1622 24.8937C19.9939 24.7687 19.7661 24.7687 19.5978 24.8937L15.502 27.9357C15.1258 28.2152 14.6195 27.8392 14.7632 27.387L16.3277 22.4649C16.392 22.2626 16.3215 22.0411 16.1533 21.9161L12.0575 18.8741C11.6813 18.5946 11.8746 17.9862 12.3397 17.9862H17.4023C17.6103 17.9862 17.7947 17.8493 17.8589 17.6471L19.4234 12.7249Z" fill="#003412"/>
</svg>
