<svg width="1512" height="543" viewBox="0 0 1512 543" fill="none" xmlns="http://www.w3.org/2000/svg">
<rect width="1512" height="543" fill="black"/>
<path d="M222.719 99.0938V100.172C222.719 101.901 222.484 103.453 222.016 104.828C221.547 106.203 220.885 107.375 220.031 108.344C219.177 109.302 218.156 110.036 216.969 110.547C215.792 111.057 214.484 111.312 213.047 111.312C211.62 111.312 210.312 111.057 209.125 110.547C207.948 110.036 206.927 109.302 206.062 108.344C205.198 107.375 204.526 106.203 204.047 104.828C203.578 103.453 203.344 101.901 203.344 100.172V99.0938C203.344 97.3542 203.578 95.8021 204.047 94.4375C204.516 93.0625 205.177 91.8906 206.031 90.9219C206.896 89.9531 207.917 89.2135 209.094 88.7031C210.281 88.1927 211.589 87.9375 213.016 87.9375C214.453 87.9375 215.76 88.1927 216.938 88.7031C218.125 89.2135 219.146 89.9531 220 90.9219C220.865 91.8906 221.531 93.0625 222 94.4375C222.479 95.8021 222.719 97.3542 222.719 99.0938ZM217.984 100.172V99.0625C217.984 97.8542 217.875 96.7917 217.656 95.875C217.438 94.9583 217.115 94.1875 216.688 93.5625C216.26 92.9375 215.74 92.4688 215.125 92.1562C214.51 91.8333 213.807 91.6719 213.016 91.6719C212.224 91.6719 211.521 91.8333 210.906 92.1562C210.302 92.4688 209.786 92.9375 209.359 93.5625C208.943 94.1875 208.625 94.9583 208.406 95.875C208.188 96.7917 208.078 97.8542 208.078 99.0625V100.172C208.078 101.37 208.188 102.432 208.406 103.359C208.625 104.276 208.948 105.052 209.375 105.688C209.802 106.312 210.323 106.786 210.938 107.109C211.552 107.432 212.255 107.594 213.047 107.594C213.839 107.594 214.542 107.432 215.156 107.109C215.771 106.786 216.286 106.312 216.703 105.688C217.12 105.052 217.438 104.276 217.656 103.359C217.875 102.432 217.984 101.37 217.984 100.172ZM238.656 88.25H243.328V103.281C243.328 105.031 242.953 106.505 242.203 107.703C241.464 108.901 240.438 109.802 239.125 110.406C237.823 111.01 236.323 111.312 234.625 111.312C232.927 111.312 231.417 111.01 230.094 110.406C228.781 109.802 227.75 108.901 227 107.703C226.26 106.505 225.891 105.031 225.891 103.281V88.25H230.578V103.281C230.578 104.302 230.74 105.135 231.062 105.781C231.385 106.427 231.849 106.901 232.453 107.203C233.068 107.505 233.792 107.656 234.625 107.656C235.479 107.656 236.203 107.505 236.797 107.203C237.401 106.901 237.859 106.427 238.172 105.781C238.495 105.135 238.656 104.302 238.656 103.281V88.25ZM247.188 88.25H255.672C257.411 88.25 258.906 88.5104 260.156 89.0312C261.417 89.5521 262.385 90.3229 263.062 91.3438C263.74 92.3646 264.078 93.6198 264.078 95.1094C264.078 96.3281 263.87 97.375 263.453 98.25C263.047 99.1146 262.469 99.8385 261.719 100.422C260.979 100.995 260.109 101.453 259.109 101.797L257.625 102.578H250.25L250.219 98.9219H255.703C256.526 98.9219 257.208 98.776 257.75 98.4844C258.292 98.1927 258.698 97.7865 258.969 97.2656C259.25 96.7448 259.391 96.1406 259.391 95.4531C259.391 94.724 259.255 94.0938 258.984 93.5625C258.714 93.0312 258.302 92.625 257.75 92.3438C257.198 92.0625 256.505 91.9219 255.672 91.9219H251.875V111H247.188V88.25ZM259.906 111L254.719 100.859L259.672 100.828L264.922 110.781V111H259.906ZM284.516 102.891H278.719V99.2344H284.516C285.411 99.2344 286.141 99.0885 286.703 98.7969C287.266 98.4948 287.677 98.0781 287.938 97.5469C288.198 97.0156 288.328 96.4167 288.328 95.75C288.328 95.0729 288.198 94.4427 287.938 93.8594C287.677 93.276 287.266 92.8073 286.703 92.4531C286.141 92.099 285.411 91.9219 284.516 91.9219H280.344V111H275.656V88.25H284.516C286.297 88.25 287.823 88.5729 289.094 89.2188C290.375 89.8542 291.354 90.7344 292.031 91.8594C292.708 92.9844 293.047 94.2708 293.047 95.7188C293.047 97.1875 292.708 98.4583 292.031 99.5312C291.354 100.604 290.375 101.432 289.094 102.016C287.823 102.599 286.297 102.891 284.516 102.891ZM302.938 92.1406L296.75 111H291.766L300.219 88.25H303.391L302.938 92.1406ZM308.078 111L301.875 92.1406L301.375 88.25H304.578L313.078 111H308.078ZM307.797 102.531V106.203H295.781V102.531H307.797ZM315.188 88.25H323.672C325.411 88.25 326.906 88.5104 328.156 89.0312C329.417 89.5521 330.385 90.3229 331.062 91.3438C331.74 92.3646 332.078 93.6198 332.078 95.1094C332.078 96.3281 331.87 97.375 331.453 98.25C331.047 99.1146 330.469 99.8385 329.719 100.422C328.979 100.995 328.109 101.453 327.109 101.797L325.625 102.578H318.25L318.219 98.9219H323.703C324.526 98.9219 325.208 98.776 325.75 98.4844C326.292 98.1927 326.698 97.7865 326.969 97.2656C327.25 96.7448 327.391 96.1406 327.391 95.4531C327.391 94.724 327.255 94.0938 326.984 93.5625C326.714 93.0312 326.302 92.625 325.75 92.3438C325.198 92.0625 324.505 91.9219 323.672 91.9219H319.875V111H315.188V88.25ZM327.906 111L322.719 100.859L327.672 100.828L332.922 110.781V111H327.906ZM344.922 88.25V111H340.25V88.25H344.922ZM351.922 88.25V91.9219H333.359V88.25H351.922ZM373.109 88.25V111H368.422L359.281 95.75V111H354.594V88.25H359.281L368.438 103.516V88.25H373.109ZM392.453 107.344V111H380.344V107.344H392.453ZM381.875 88.25V111H377.188V88.25H381.875ZM390.875 97.5156V101.078H380.344V97.5156H390.875ZM392.438 88.25V91.9219H380.344V88.25H392.438ZM395.188 88.25H403.672C405.411 88.25 406.906 88.5104 408.156 89.0312C409.417 89.5521 410.385 90.3229 411.062 91.3438C411.74 92.3646 412.078 93.6198 412.078 95.1094C412.078 96.3281 411.87 97.375 411.453 98.25C411.047 99.1146 410.469 99.8385 409.719 100.422C408.979 100.995 408.109 101.453 407.109 101.797L405.625 102.578H398.25L398.219 98.9219H403.703C404.526 98.9219 405.208 98.776 405.75 98.4844C406.292 98.1927 406.698 97.7865 406.969 97.2656C407.25 96.7448 407.391 96.1406 407.391 95.4531C407.391 94.724 407.255 94.0938 406.984 93.5625C406.714 93.0312 406.302 92.625 405.75 92.3438C405.198 92.0625 404.505 91.9219 403.672 91.9219H399.875V111H395.188V88.25ZM407.906 111L402.719 100.859L407.672 100.828L412.922 110.781V111H407.906ZM427.531 105.047C427.531 104.641 427.469 104.276 427.344 103.953C427.229 103.62 427.01 103.318 426.688 103.047C426.365 102.766 425.911 102.49 425.328 102.219C424.745 101.948 423.99 101.667 423.062 101.375C422.031 101.042 421.052 100.667 420.125 100.25C419.208 99.8333 418.396 99.349 417.688 98.7969C416.99 98.2344 416.438 97.5833 416.031 96.8438C415.635 96.1042 415.438 95.2448 415.438 94.2656C415.438 93.3177 415.646 92.4583 416.062 91.6875C416.479 90.9062 417.062 90.2396 417.812 89.6875C418.562 89.125 419.448 88.6927 420.469 88.3906C421.5 88.0885 422.63 87.9375 423.859 87.9375C425.536 87.9375 427 88.2396 428.25 88.8438C429.5 89.4479 430.469 90.276 431.156 91.3281C431.854 92.3802 432.203 93.5833 432.203 94.9375H427.547C427.547 94.2708 427.406 93.6875 427.125 93.1875C426.854 92.6771 426.438 92.276 425.875 91.9844C425.323 91.6927 424.625 91.5469 423.781 91.5469C422.969 91.5469 422.292 91.6719 421.75 91.9219C421.208 92.1615 420.802 92.4896 420.531 92.9062C420.26 93.3125 420.125 93.7708 420.125 94.2812C420.125 94.6667 420.219 95.0156 420.406 95.3281C420.604 95.6406 420.896 95.9323 421.281 96.2031C421.667 96.474 422.141 96.7292 422.703 96.9688C423.266 97.2083 423.917 97.4427 424.656 97.6719C425.896 98.0469 426.984 98.4688 427.922 98.9375C428.87 99.4062 429.661 99.9323 430.297 100.516C430.932 101.099 431.411 101.76 431.734 102.5C432.057 103.24 432.219 104.078 432.219 105.016C432.219 106.005 432.026 106.891 431.641 107.672C431.255 108.453 430.698 109.115 429.969 109.656C429.24 110.198 428.37 110.609 427.359 110.891C426.349 111.172 425.219 111.312 423.969 111.312C422.844 111.312 421.734 111.167 420.641 110.875C419.547 110.573 418.552 110.12 417.656 109.516C416.771 108.911 416.062 108.141 415.531 107.203C415 106.266 414.734 105.156 414.734 103.875H419.438C419.438 104.583 419.547 105.182 419.766 105.672C419.984 106.161 420.292 106.557 420.688 106.859C421.094 107.161 421.573 107.38 422.125 107.516C422.688 107.651 423.302 107.719 423.969 107.719C424.781 107.719 425.448 107.604 425.969 107.375C426.5 107.146 426.891 106.828 427.141 106.422C427.401 106.016 427.531 105.557 427.531 105.047Z" fill="white"/>
<mask id="mask0_59911_64843" style="mask-type:alpha" maskUnits="userSpaceOnUse" x="401" y="240" width="184" height="183">
<rect x="401.5" y="240" width="183" height="183" fill="#D9D9D9"/>
</mask>
<g mask="url(#mask0_59911_64843)">
<path d="M462.5 376.869C463.771 376.996 465.01 377.091 466.217 377.155C467.424 377.218 468.727 377.25 470.125 377.25C471.523 377.25 472.826 377.218 474.033 377.155C475.24 377.091 476.479 376.996 477.75 376.869V392.5H554V316.25H538.369C538.496 314.979 538.591 313.74 538.655 312.533C538.718 311.326 538.75 310.023 538.75 308.625C538.75 307.227 538.718 305.924 538.655 304.717C538.591 303.51 538.496 302.271 538.369 301H554C558.194 301 561.784 302.493 564.77 305.48C567.757 308.466 569.25 312.056 569.25 316.25V392.5C569.25 396.694 567.757 400.284 564.77 403.27C561.784 406.257 558.194 407.75 554 407.75H477.75C473.556 407.75 469.966 406.257 466.98 403.27C463.993 400.284 462.5 396.694 462.5 392.5V376.869ZM470.125 362C455.256 362 442.643 356.821 432.286 346.464C421.929 336.107 416.75 323.494 416.75 308.625C416.75 293.756 421.929 281.143 432.286 270.786C442.643 260.429 455.256 255.25 470.125 255.25C484.994 255.25 497.607 260.429 507.964 270.786C518.321 281.143 523.5 293.756 523.5 308.625C523.5 323.494 518.321 336.107 507.964 346.464C497.607 356.821 484.994 362 470.125 362ZM470.125 346.75C480.673 346.75 489.664 343.033 497.098 335.598C504.533 328.164 508.25 319.173 508.25 308.625C508.25 298.077 504.533 289.086 497.098 281.652C489.664 274.217 480.673 270.5 470.125 270.5C459.577 270.5 450.586 274.217 443.152 281.652C435.717 289.086 432 298.077 432 308.625C432 319.173 435.717 328.164 443.152 335.598C450.586 343.033 459.577 346.75 470.125 346.75Z" fill="white"/>
</g>
<mask id="mask1_59911_64843" style="mask-type:alpha" maskUnits="userSpaceOnUse" x="664" y="240" width="184" height="183">
<rect x="664.5" y="240" width="183" height="183" fill="#D9D9D9"/>
</mask>
<g mask="url(#mask1_59911_64843)">
<path d="M725.5 376.869C726.771 376.996 728.01 377.091 729.217 377.155C730.424 377.218 731.727 377.25 733.125 377.25C734.523 377.25 735.826 377.218 737.033 377.155C738.24 377.091 739.479 376.996 740.75 376.869V392.5H817V316.25H801.369C801.496 314.979 801.591 313.74 801.655 312.533C801.718 311.326 801.75 310.023 801.75 308.625C801.75 307.227 801.718 305.924 801.655 304.717C801.591 303.51 801.496 302.271 801.369 301H817C821.194 301 824.784 302.493 827.77 305.48C830.757 308.466 832.25 312.056 832.25 316.25V392.5C832.25 396.694 830.757 400.284 827.77 403.27C824.784 406.257 821.194 407.75 817 407.75H740.75C736.556 407.75 732.966 406.257 729.98 403.27C726.993 400.284 725.5 396.694 725.5 392.5V376.869ZM733.125 362C718.256 362 705.643 356.821 695.286 346.464C684.929 336.107 679.75 323.494 679.75 308.625C679.75 293.756 684.929 281.143 695.286 270.786C705.643 260.429 718.256 255.25 733.125 255.25C747.994 255.25 760.607 260.429 770.964 270.786C781.321 281.143 786.5 293.756 786.5 308.625C786.5 323.494 781.321 336.107 770.964 346.464C760.607 356.821 747.994 362 733.125 362ZM733.125 346.75C743.673 346.75 752.664 343.033 760.098 335.598C767.533 328.164 771.25 319.173 771.25 308.625C771.25 298.077 767.533 289.086 760.098 281.652C752.664 274.217 743.673 270.5 733.125 270.5C722.577 270.5 713.586 274.217 706.152 281.652C698.717 289.086 695 298.077 695 308.625C695 319.173 698.717 328.164 706.152 335.598C713.586 343.033 722.577 346.75 733.125 346.75Z" fill="white"/>
</g>
<mask id="mask2_59911_64843" style="mask-type:alpha" maskUnits="userSpaceOnUse" x="927" y="240" width="184" height="183">
<rect x="927.5" y="240" width="183" height="183" fill="#D9D9D9"/>
</mask>
<g mask="url(#mask2_59911_64843)">
<path d="M988.5 376.869C989.771 376.996 991.01 377.091 992.217 377.155C993.424 377.218 994.727 377.25 996.125 377.25C997.523 377.25 998.826 377.218 1000.03 377.155C1001.24 377.091 1002.48 376.996 1003.75 376.869V392.5H1080V316.25H1064.37C1064.5 314.979 1064.59 313.74 1064.65 312.533C1064.72 311.326 1064.75 310.023 1064.75 308.625C1064.75 307.227 1064.72 305.924 1064.65 304.717C1064.59 303.51 1064.5 302.271 1064.37 301H1080C1084.19 301 1087.78 302.493 1090.77 305.48C1093.76 308.466 1095.25 312.056 1095.25 316.25V392.5C1095.25 396.694 1093.76 400.284 1090.77 403.27C1087.78 406.257 1084.19 407.75 1080 407.75H1003.75C999.556 407.75 995.966 406.257 992.98 403.27C989.993 400.284 988.5 396.694 988.5 392.5V376.869ZM996.125 362C981.256 362 968.643 356.821 958.286 346.464C947.929 336.107 942.75 323.494 942.75 308.625C942.75 293.756 947.929 281.143 958.286 270.786C968.643 260.429 981.256 255.25 996.125 255.25C1010.99 255.25 1023.61 260.429 1033.96 270.786C1044.32 281.143 1049.5 293.756 1049.5 308.625C1049.5 323.494 1044.32 336.107 1033.96 346.464C1023.61 356.821 1010.99 362 996.125 362ZM996.125 346.75C1006.67 346.75 1015.66 343.033 1023.1 335.598C1030.53 328.164 1034.25 319.173 1034.25 308.625C1034.25 298.077 1030.53 289.086 1023.1 281.652C1015.66 274.217 1006.67 270.5 996.125 270.5C985.577 270.5 976.586 274.217 969.152 281.652C961.717 289.086 958 298.077 958 308.625C958 319.173 961.717 328.164 969.152 335.598C976.586 343.033 985.577 346.75 996.125 346.75Z" fill="white"/>
</g>
</svg>
